<?xml version="1.0" encoding="UTF-8"?>
<!--!
Font Awesome Pro 6.2.1 by @fontawesome - https://fontawesome.com
License - https://fontawesome.com/license (Commercial License)
Copyright 2023 Fonticons, Inc.
-->
<svg xmlns="http://www.w3.org/2000/svg" style="display: none;">
  <symbol id="square-info" viewBox="0 0 448 512">
    <path d="M384 32H64C28.65 32 0 60.66 0 96v320c0 35.34 28.65 64 64 64h320c35.35 0 64-28.66 64-64V96C448 60.66 419.3 32 384 32zM400 416c0 8.82-7.178 16-16 16H64c-8.822 0-16-7.18-16-16V96c0-8.82 7.178-16 16-16h320c8.822 0 16 7.18 16 16V416zM264 336h-16V248C248 234.8 237.3 224 224 224H192C178.8 224 168 234.8 168 248S178.8 272 192 272h8v64h-16C170.8 336 160 346.8 160 360S170.8 384 184 384h80c13.25 0 24-10.75 24-24S277.3 336 264 336zM224 192c17.67 0 32-14.33 32-32c0-17.67-14.33-32-32-32S192 142.3 192 160C192 177.7 206.3 192 224 192z"></path>
  </symbol>
  <symbol id="circle-question" viewBox="0 0 512 512">
    <path d="M256 0C114.6 0 0 114.6 0 256s114.6 256 256 256s256-114.6 256-256S397.4 0 256 0zM256 464c-114.7 0-208-93.31-208-208S141.3 48 256 48s208 93.31 208 208S370.7 464 256 464zM256 336c-18 0-32 14-32 32s13.1 32 32 32c17.1 0 32-14 32-32S273.1 336 256 336zM289.1 128h-51.1C199 128 168 159 168 198c0 13 11 24 24 24s24-11 24-24C216 186 225.1 176 237.1 176h51.1C301.1 176 312 186 312 198c0 8-4 14.1-11 18.1L244 251C236 256 232 264 232 272V288c0 13 11 24 24 24S280 301 280 288V286l45.1-28c21-13 34-36 34-60C360 159 329 128 289.1 128z"></path>
  </symbol>
  <symbol id="circle-info" viewBox="0 0 512 512">
    <path d="M256 0C114.6 0 0 114.6 0 256s114.6 256 256 256s256-114.6 256-256S397.4 0 256 0zM256 464c-114.7 0-208-93.31-208-208S141.3 48 256 48s208 93.31 208 208S370.7 464 256 464zM296 336h-16V248C280 234.8 269.3 224 256 224H224C210.8 224 200 234.8 200 248S210.8 272 224 272h8v64h-16C202.8 336 192 346.8 192 360S202.8 384 216 384h80c13.25 0 24-10.75 24-24S309.3 336 296 336zM256 192c17.67 0 32-14.33 32-32c0-17.67-14.33-32-32-32S224 142.3 224 160C224 177.7 238.3 192 256 192z"></path>
  </symbol>
  <symbol id="vials" viewBox="0 0 512 512">
    <path d="M488 32h-176C298.8 32 288 42.8 288 56c0 13.2 10.8 24 24 24H320v316.5c0 41.76 30.47 79.12 72.03 83.15C439.7 484.2 480 446.8 480 400v-320h8C501.2 80 512 69.2 512 56C512 42.8 501.2 32 488 32zM432 256h-64V80h64V256zM200 32h-176C10.8 32 0 42.8 0 56C0 69.2 10.8 80 24 80H32v316.5c0 41.76 30.47 79.12 72.03 83.15C151.7 484.2 192 446.8 192 400v-320h8C213.2 80 224 69.2 224 56C224 42.8 213.2 32 200 32zM144 256h-64V80h64V256z"></path>
  </symbol>
  <symbol id="notdef" viewBox="0 0 384 512">
    <path d="M336 0h-288C21.49 0 0 21.49 0 48v416C0 490.5 21.49 512 48 512h288c26.51 0 48-21.49 48-48v-416C384 21.49 362.5 0 336 0zM336 90.16V421.8L221.2 256L336 90.16zM192 213.8L77.19 48h229.6L192 213.8zM162.8 256L48 421.8V90.16L162.8 256zM192 298.2L306.8 464H77.19L192 298.2z"></path>
  </symbol>
</svg>
